<mxfile host="65bd71144e">
    <diagram id="QNud_JYVPoLKtopbp8ti" name="Page-1">
        <mxGraphModel dx="760" dy="473" grid="1" gridSize="10" guides="1" tooltips="1" connect="1" arrows="1" fold="1" page="1" pageScale="1" pageWidth="827" pageHeight="1169" math="0" shadow="0">
            <root>
                <mxCell id="0"/>
                <mxCell id="1" parent="0"/>
                <mxCell id="15" value="Users" style="shape=table;startSize=40;container=1;collapsible=0;childLayout=tableLayout;fillColor=#d80073;fontColor=#FFFFFF;strokeColor=#A50040;fontSize=14;shadow=1;rowLines=1;backgroundOutline=0;" vertex="1" parent="1">
                    <mxGeometry x="40" y="40" width="200" height="404" as="geometry"/>
                </mxCell>
                <mxCell id="16" value="" style="shape=tableRow;horizontal=0;startSize=0;swimlaneHead=0;swimlaneBody=0;top=0;left=0;bottom=0;right=0;collapsible=0;dropTarget=0;fillColor=none;points=[[0,0.5],[1,0.5]];portConstraint=eastwest;" vertex="1" parent="15">
                    <mxGeometry y="40" width="200" height="52" as="geometry"/>
                </mxCell>
                <mxCell id="17" value="&lt;font color=&quot;#000000&quot;&gt;ID&lt;br&gt;(primmary key)&lt;br&gt;&lt;/font&gt;" style="shape=partialRectangle;html=1;whiteSpace=wrap;connectable=0;overflow=hidden;fillColor=#fad9d5;top=0;left=0;bottom=0;right=0;pointerEvents=1;strokeColor=#ae4132;" vertex="1" parent="16">
                    <mxGeometry width="100" height="52" as="geometry">
                        <mxRectangle width="100" height="52" as="alternateBounds"/>
                    </mxGeometry>
                </mxCell>
                <mxCell id="18" value="&lt;font color=&quot;#000000&quot;&gt;interger&lt;/font&gt;" style="shape=partialRectangle;html=1;whiteSpace=wrap;connectable=0;overflow=hidden;fillColor=#fad9d5;top=0;left=0;bottom=0;right=0;pointerEvents=1;strokeColor=#ae4132;" vertex="1" parent="16">
                    <mxGeometry x="100" width="100" height="52" as="geometry">
                        <mxRectangle width="100" height="52" as="alternateBounds"/>
                    </mxGeometry>
                </mxCell>
                <mxCell id="19" value="" style="shape=tableRow;horizontal=0;startSize=0;swimlaneHead=0;swimlaneBody=0;top=0;left=0;bottom=0;right=0;collapsible=0;dropTarget=0;fillColor=none;points=[[0,0.5],[1,0.5]];portConstraint=eastwest;" vertex="1" parent="15">
                    <mxGeometry y="92" width="200" height="52" as="geometry"/>
                </mxCell>
                <mxCell id="20" value="Name" style="shape=partialRectangle;html=1;whiteSpace=wrap;connectable=0;overflow=hidden;fillColor=#fad9d5;top=0;left=0;bottom=0;right=0;pointerEvents=1;strokeColor=#ae4132;fontColor=#000000;" vertex="1" parent="19">
                    <mxGeometry width="100" height="52" as="geometry">
                        <mxRectangle width="100" height="52" as="alternateBounds"/>
                    </mxGeometry>
                </mxCell>
                <mxCell id="21" value="string" style="shape=partialRectangle;html=1;whiteSpace=wrap;connectable=0;overflow=hidden;fillColor=#fad9d5;top=0;left=0;bottom=0;right=0;pointerEvents=1;strokeColor=#ae4132;fontColor=#000000;" vertex="1" parent="19">
                    <mxGeometry x="100" width="100" height="52" as="geometry">
                        <mxRectangle width="100" height="52" as="alternateBounds"/>
                    </mxGeometry>
                </mxCell>
                <mxCell id="22" value="" style="shape=tableRow;horizontal=0;startSize=0;swimlaneHead=0;swimlaneBody=0;top=0;left=0;bottom=0;right=0;collapsible=0;dropTarget=0;fillColor=none;points=[[0,0.5],[1,0.5]];portConstraint=eastwest;" vertex="1" parent="15">
                    <mxGeometry y="144" width="200" height="52" as="geometry"/>
                </mxCell>
                <mxCell id="23" value="Email" style="shape=partialRectangle;html=1;whiteSpace=wrap;connectable=0;overflow=hidden;fillColor=#fad9d5;top=0;left=0;bottom=0;right=0;pointerEvents=1;strokeColor=#ae4132;fontColor=#000000;" vertex="1" parent="22">
                    <mxGeometry width="100" height="52" as="geometry">
                        <mxRectangle width="100" height="52" as="alternateBounds"/>
                    </mxGeometry>
                </mxCell>
                <mxCell id="24" value="string" style="shape=partialRectangle;html=1;whiteSpace=wrap;connectable=0;overflow=hidden;fillColor=#fad9d5;top=0;left=0;bottom=0;right=0;pointerEvents=1;strokeColor=#ae4132;fontColor=#000000;" vertex="1" parent="22">
                    <mxGeometry x="100" width="100" height="52" as="geometry">
                        <mxRectangle width="100" height="52" as="alternateBounds"/>
                    </mxGeometry>
                </mxCell>
                <mxCell id="25" value="" style="shape=tableRow;horizontal=0;startSize=0;swimlaneHead=0;swimlaneBody=0;top=0;left=0;bottom=0;right=0;collapsible=0;dropTarget=0;fillColor=none;points=[[0,0.5],[1,0.5]];portConstraint=eastwest;" vertex="1" parent="15">
                    <mxGeometry y="196" width="200" height="52" as="geometry"/>
                </mxCell>
                <mxCell id="26" value="Passowrd" style="shape=partialRectangle;html=1;whiteSpace=wrap;connectable=0;overflow=hidden;fillColor=#fad9d5;top=0;left=0;bottom=0;right=0;pointerEvents=1;strokeColor=#ae4132;fontColor=#000000;" vertex="1" parent="25">
                    <mxGeometry width="100" height="52" as="geometry">
                        <mxRectangle width="100" height="52" as="alternateBounds"/>
                    </mxGeometry>
                </mxCell>
                <mxCell id="27" value="string" style="shape=partialRectangle;html=1;whiteSpace=wrap;connectable=0;overflow=hidden;fillColor=#fad9d5;top=0;left=0;bottom=0;right=0;pointerEvents=1;strokeColor=#ae4132;fontColor=#000000;" vertex="1" parent="25">
                    <mxGeometry x="100" width="100" height="52" as="geometry">
                        <mxRectangle width="100" height="52" as="alternateBounds"/>
                    </mxGeometry>
                </mxCell>
                <mxCell id="28" value="" style="shape=tableRow;horizontal=0;startSize=0;swimlaneHead=0;swimlaneBody=0;top=0;left=0;bottom=0;right=0;collapsible=0;dropTarget=0;fillColor=none;points=[[0,0.5],[1,0.5]];portConstraint=eastwest;" vertex="1" parent="15">
                    <mxGeometry y="248" width="200" height="52" as="geometry"/>
                </mxCell>
                <mxCell id="29" value="Avatar" style="shape=partialRectangle;html=1;whiteSpace=wrap;connectable=0;overflow=hidden;fillColor=#fad9d5;top=0;left=0;bottom=0;right=0;pointerEvents=1;strokeColor=#ae4132;fontColor=#000000;" vertex="1" parent="28">
                    <mxGeometry width="100" height="52" as="geometry">
                        <mxRectangle width="100" height="52" as="alternateBounds"/>
                    </mxGeometry>
                </mxCell>
                <mxCell id="30" value="string" style="shape=partialRectangle;html=1;whiteSpace=wrap;connectable=0;overflow=hidden;fillColor=#fad9d5;top=0;left=0;bottom=0;right=0;pointerEvents=1;strokeColor=#ae4132;fontColor=#000000;" vertex="1" parent="28">
                    <mxGeometry x="100" width="100" height="52" as="geometry">
                        <mxRectangle width="100" height="52" as="alternateBounds"/>
                    </mxGeometry>
                </mxCell>
                <mxCell id="31" style="shape=tableRow;horizontal=0;startSize=0;swimlaneHead=0;swimlaneBody=0;top=0;left=0;bottom=0;right=0;collapsible=0;dropTarget=0;fillColor=none;points=[[0,0.5],[1,0.5]];portConstraint=eastwest;" vertex="1" parent="15">
                    <mxGeometry y="300" width="200" height="52" as="geometry"/>
                </mxCell>
                <mxCell id="32" value="Created at" style="shape=partialRectangle;html=1;whiteSpace=wrap;connectable=0;overflow=hidden;fillColor=#fad9d5;top=0;left=0;bottom=0;right=0;pointerEvents=1;strokeColor=#ae4132;fontColor=#000000;" vertex="1" parent="31">
                    <mxGeometry width="100" height="52" as="geometry">
                        <mxRectangle width="100" height="52" as="alternateBounds"/>
                    </mxGeometry>
                </mxCell>
                <mxCell id="33" value="date" style="shape=partialRectangle;html=1;whiteSpace=wrap;connectable=0;overflow=hidden;fillColor=#fad9d5;top=0;left=0;bottom=0;right=0;pointerEvents=1;strokeColor=#ae4132;fontColor=#000000;" vertex="1" parent="31">
                    <mxGeometry x="100" width="100" height="52" as="geometry">
                        <mxRectangle width="100" height="52" as="alternateBounds"/>
                    </mxGeometry>
                </mxCell>
                <mxCell id="34" style="shape=tableRow;horizontal=0;startSize=0;swimlaneHead=0;swimlaneBody=0;top=0;left=0;bottom=0;right=0;collapsible=0;dropTarget=0;fillColor=none;points=[[0,0.5],[1,0.5]];portConstraint=eastwest;" vertex="1" parent="15">
                    <mxGeometry y="352" width="200" height="52" as="geometry"/>
                </mxCell>
                <mxCell id="35" value="Updated at" style="shape=partialRectangle;html=1;whiteSpace=wrap;connectable=0;overflow=hidden;fillColor=#fad9d5;top=0;left=0;bottom=0;right=0;pointerEvents=1;strokeColor=#ae4132;fontColor=#000000;" vertex="1" parent="34">
                    <mxGeometry width="100" height="52" as="geometry">
                        <mxRectangle width="100" height="52" as="alternateBounds"/>
                    </mxGeometry>
                </mxCell>
                <mxCell id="36" value="date" style="shape=partialRectangle;html=1;whiteSpace=wrap;connectable=0;overflow=hidden;fillColor=#fad9d5;top=0;left=0;bottom=0;right=0;pointerEvents=1;strokeColor=#ae4132;fontColor=#000000;" vertex="1" parent="34">
                    <mxGeometry x="100" width="100" height="52" as="geometry">
                        <mxRectangle width="100" height="52" as="alternateBounds"/>
                    </mxGeometry>
                </mxCell>
                <mxCell id="37" value="Post" style="shape=table;startSize=30;container=1;collapsible=0;childLayout=tableLayout;shadow=1;fontSize=14;fillColor=#f0a30a;strokeColor=#BD7000;fontColor=#FFFFFF;" vertex="1" parent="1">
                    <mxGeometry x="360" y="40" width="200" height="410" as="geometry"/>
                </mxCell>
                <mxCell id="38" value="" style="shape=tableRow;horizontal=0;startSize=0;swimlaneHead=0;swimlaneBody=0;top=0;left=0;bottom=0;right=0;collapsible=0;dropTarget=0;fillColor=none;points=[[0,0.5],[1,0.5]];portConstraint=eastwest;shadow=1;fontSize=14;fontColor=#000000;" vertex="1" parent="37">
                    <mxGeometry y="30" width="200" height="76" as="geometry"/>
                </mxCell>
                <mxCell id="39" value="ID&lt;br&gt;(primary key)" style="shape=partialRectangle;html=1;whiteSpace=wrap;connectable=0;overflow=hidden;fillColor=#fad7ac;top=0;left=0;bottom=0;right=0;pointerEvents=1;shadow=1;fontSize=14;strokeColor=#b46504;fontColor=#000000;" vertex="1" parent="38">
                    <mxGeometry width="100" height="76" as="geometry">
                        <mxRectangle width="100" height="76" as="alternateBounds"/>
                    </mxGeometry>
                </mxCell>
                <mxCell id="40" value="interger" style="shape=partialRectangle;html=1;whiteSpace=wrap;connectable=0;overflow=hidden;fillColor=#fad7ac;top=0;left=0;bottom=0;right=0;pointerEvents=1;shadow=1;fontSize=14;strokeColor=#b46504;fontColor=#000000;" vertex="1" parent="38">
                    <mxGeometry x="100" width="100" height="76" as="geometry">
                        <mxRectangle width="100" height="76" as="alternateBounds"/>
                    </mxGeometry>
                </mxCell>
                <mxCell id="41" value="" style="shape=tableRow;horizontal=0;startSize=0;swimlaneHead=0;swimlaneBody=0;top=0;left=0;bottom=0;right=0;collapsible=0;dropTarget=0;fillColor=none;points=[[0,0.5],[1,0.5]];portConstraint=eastwest;shadow=1;fontSize=14;fontColor=#000000;" vertex="1" parent="37">
                    <mxGeometry y="106" width="200" height="76" as="geometry"/>
                </mxCell>
                <mxCell id="42" value="User ID&lt;br&gt;(foreign key)" style="shape=partialRectangle;html=1;whiteSpace=wrap;connectable=0;overflow=hidden;fillColor=#fad7ac;top=0;left=0;bottom=0;right=0;pointerEvents=1;shadow=1;fontSize=14;strokeColor=#b46504;fontColor=#000000;" vertex="1" parent="41">
                    <mxGeometry width="100" height="76" as="geometry">
                        <mxRectangle width="100" height="76" as="alternateBounds"/>
                    </mxGeometry>
                </mxCell>
                <mxCell id="43" value="interger" style="shape=partialRectangle;html=1;whiteSpace=wrap;connectable=0;overflow=hidden;fillColor=#fad7ac;top=0;left=0;bottom=0;right=0;pointerEvents=1;shadow=1;fontSize=14;strokeColor=#b46504;fontColor=#000000;" vertex="1" parent="41">
                    <mxGeometry x="100" width="100" height="76" as="geometry">
                        <mxRectangle width="100" height="76" as="alternateBounds"/>
                    </mxGeometry>
                </mxCell>
                <mxCell id="44" value="" style="shape=tableRow;horizontal=0;startSize=0;swimlaneHead=0;swimlaneBody=0;top=0;left=0;bottom=0;right=0;collapsible=0;dropTarget=0;fillColor=none;points=[[0,0.5],[1,0.5]];portConstraint=eastwest;shadow=1;fontSize=14;fontColor=#000000;" vertex="1" parent="37">
                    <mxGeometry y="182" width="200" height="76" as="geometry"/>
                </mxCell>
                <mxCell id="45" value="title" style="shape=partialRectangle;html=1;whiteSpace=wrap;connectable=0;overflow=hidden;fillColor=#fad7ac;top=0;left=0;bottom=0;right=0;pointerEvents=1;shadow=1;fontSize=14;strokeColor=#b46504;fontColor=#000000;" vertex="1" parent="44">
                    <mxGeometry width="100" height="76" as="geometry">
                        <mxRectangle width="100" height="76" as="alternateBounds"/>
                    </mxGeometry>
                </mxCell>
                <mxCell id="46" value="string" style="shape=partialRectangle;html=1;whiteSpace=wrap;connectable=0;overflow=hidden;fillColor=#fad7ac;top=0;left=0;bottom=0;right=0;pointerEvents=1;shadow=1;fontSize=14;strokeColor=#b46504;fontColor=#000000;" vertex="1" parent="44">
                    <mxGeometry x="100" width="100" height="76" as="geometry">
                        <mxRectangle width="100" height="76" as="alternateBounds"/>
                    </mxGeometry>
                </mxCell>
                <mxCell id="47" value="" style="shape=tableRow;horizontal=0;startSize=0;swimlaneHead=0;swimlaneBody=0;top=0;left=0;bottom=0;right=0;collapsible=0;dropTarget=0;fillColor=none;points=[[0,0.5],[1,0.5]];portConstraint=eastwest;shadow=1;fontSize=14;fontColor=#000000;" vertex="1" parent="37">
                    <mxGeometry y="258" width="200" height="76" as="geometry"/>
                </mxCell>
                <mxCell id="48" value="description" style="shape=partialRectangle;html=1;whiteSpace=wrap;connectable=0;overflow=hidden;fillColor=#fad7ac;top=0;left=0;bottom=0;right=0;pointerEvents=1;shadow=1;fontSize=14;strokeColor=#b46504;fontColor=#000000;" vertex="1" parent="47">
                    <mxGeometry width="100" height="76" as="geometry">
                        <mxRectangle width="100" height="76" as="alternateBounds"/>
                    </mxGeometry>
                </mxCell>
                <mxCell id="49" value="string" style="shape=partialRectangle;html=1;whiteSpace=wrap;connectable=0;overflow=hidden;fillColor=#fad7ac;top=0;left=0;bottom=0;right=0;pointerEvents=1;shadow=1;fontSize=14;strokeColor=#b46504;fontColor=#000000;" vertex="1" parent="47">
                    <mxGeometry x="100" width="100" height="76" as="geometry">
                        <mxRectangle width="100" height="76" as="alternateBounds"/>
                    </mxGeometry>
                </mxCell>
                <mxCell id="50" value="" style="shape=tableRow;horizontal=0;startSize=0;swimlaneHead=0;swimlaneBody=0;top=0;left=0;bottom=0;right=0;collapsible=0;dropTarget=0;fillColor=none;points=[[0,0.5],[1,0.5]];portConstraint=eastwest;shadow=1;fontSize=14;fontColor=#000000;" vertex="1" parent="37">
                    <mxGeometry y="334" width="200" height="76" as="geometry"/>
                </mxCell>
                <mxCell id="51" value="created at" style="shape=partialRectangle;html=1;whiteSpace=wrap;connectable=0;overflow=hidden;fillColor=#fad7ac;top=0;left=0;bottom=0;right=0;pointerEvents=1;shadow=1;fontSize=14;strokeColor=#b46504;fontColor=#000000;" vertex="1" parent="50">
                    <mxGeometry width="100" height="76" as="geometry">
                        <mxRectangle width="100" height="76" as="alternateBounds"/>
                    </mxGeometry>
                </mxCell>
                <mxCell id="52" value="date" style="shape=partialRectangle;html=1;whiteSpace=wrap;connectable=0;overflow=hidden;fillColor=#fad7ac;top=0;left=0;bottom=0;right=0;pointerEvents=1;shadow=1;fontSize=14;strokeColor=#b46504;fontColor=#000000;" vertex="1" parent="50">
                    <mxGeometry x="100" width="100" height="76" as="geometry">
                        <mxRectangle width="100" height="76" as="alternateBounds"/>
                    </mxGeometry>
                </mxCell>
                <mxCell id="53" value="" style="shape=flexArrow;endArrow=classic;html=1;fontSize=14;fontColor=#000000;fillColor=#e51400;strokeColor=#B20000;entryX=0;entryY=0.5;entryDx=0;entryDy=0;" edge="1" parent="1" target="41">
                    <mxGeometry width="50" height="50" relative="1" as="geometry">
                        <mxPoint x="240" y="110" as="sourcePoint"/>
                        <mxPoint x="350" y="190" as="targetPoint"/>
                        <Array as="points">
                            <mxPoint x="300" y="110"/>
                            <mxPoint x="300" y="190"/>
                        </Array>
                    </mxGeometry>
                </mxCell>
            </root>
        </mxGraphModel>
    </diagram>
</mxfile>